<svg xmlns="http://www.w3.org/2000/svg" viewBox="0 0 64 64">
  <defs>
    <radialGradient id="bg" cx="50%" cy="50%" r="50%">
      <stop offset="0%" stop-color="#1a1630"/>
      <stop offset="100%" stop-color="#050509"/>
    </radialGradient>
    <linearGradient id="g1" x1="0%" y1="0%" x2="100%" y2="100%">
      <stop offset="0%" stop-color="#7b5cff"/>
      <stop offset="100%" stop-color="#3fd5ff"/>
    </linearGradient>
  </defs>
  <circle cx="32" cy="32" r="32" fill="url(#bg)"/>
  <path d="M32 6 A26 26 0 0 1 58 32" stroke="url(#g1)" stroke-width="2.5" fill="none" stroke-linecap="round"/>
  <path d="M58 32 A26 26 0 0 1 32 58" stroke="#7b5cff" stroke-width="1.5" fill="none" stroke-linecap="round" opacity="0.5"/>
  <path d="M32 58 A26 26 0 0 1 6 32" stroke="#3fd5ff" stroke-width="1" fill="none" stroke-linecap="round" opacity="0.3"/>
  <path d="M32 14 A18 18 0 0 1 50 32 A18 18 0 0 1 38 48" stroke="url(#g1)" stroke-width="2" fill="none" stroke-linecap="round"/>
  <path d="M32 20 A12 12 0 0 1 44 32 A12 12 0 0 1 32 44 A12 12 0 0 1 22 36" stroke="#7b5cff" stroke-width="1.8" fill="none" stroke-linecap="round"/>
  <circle cx="32" cy="32" r="4" fill="url(#g1)"/>
  <circle cx="32" cy="32" r="2" fill="#fff" opacity="0.9"/>
</svg>
